# File created by Blade
# Date/Time:  Wed Jan 21 17:47:32 2015
# Frame Rate: 120.000 fps
#------------------------------------------------------
:FULLY-SPECIFIED
:DEGREES
1601
root 19.742567 36.065498 -24.735449 -167.750480 40.313609 -174.321703
Spine 30.024734 -2.927085 -6.429293
Head 9.220700 -9.583833 17.447114
LeftShoulder 5.497954 -20.825277 3.434493
LeftArm 17.489236 56.251583 -72.661218
LeftForeArm -7.780126 -0.000000 21.632839
LeftHand 0.075494 -0.000000 -4.504189
LeftHandThumb1 -26.253704 0.000000 33.147579
RightShoulder -5.001007 -5.996240 11.735392
RightArm 15.663395 6.841498 70.884473
RightForeArm -18.984496 -0.000000 20.967347
RightHand 1.086239 -0.000000 5.973914
RightHandThumb1 -24.326973 -0.000000 -32.862282
LeftUpLeg -13.911304 22.189345 1.602358
LeftLeg 6.244440 -0.000000 -0.000000
LeftFoot -16.134360 22.039884 -12.453525
LeftToeBase 24.510394 -0.000000 -0.000000
RightUpLeg -21.926364 -16.111580 -6.832489
RightLeg 9.020837 -0.000000 -0.000000
RightFoot 3.804582 -25.939413 12.893926
RightToeBase 7.533854 -0.000000 -0.000000
1602
root 19.655980 36.074575 -24.800798 -168.473987 39.697353 -174.571323
Spine 29.595635 -2.901366 -6.217409
Head 9.510420 -9.278183 16.934202
LeftShoulder 5.194448 -20.731617 3.472994
LeftArm 17.697154 57.520807 -72.514295
LeftForeArm -7.183155 -0.000000 22.674959
LeftHand -0.054767 -0.000000 -4.809895
LeftHandThumb1 -26.253704 0.000000 33.147579
RightShoulder -4.929819 -6.092160 11.853794
RightArm 16.324788 4.348628 70.294946
RightForeArm -20.310141 -0.000000 21.932891
RightHand 0.629379 -0.000000 5.995288
RightHandThumb1 -24.326973 -0.000000 -32.862282
LeftUpLeg -13.442239 22.105372 1.417999
LeftLeg 6.161502 -0.000000 -0.000000
LeftFoot -16.002030 21.721536 -12.536761
LeftToeBase 24.493575 -0.000000 -0.000000
RightUpLeg -21.026554 -15.833086 -7.394205
RightLeg 9.195123 -0.000000 -0.000000
RightFoot 1.796408 -26.296131 13.247894
RightToeBase 7.842431 -0.000000 -0.000000
1603
root 19.582643 36.087748 -24.862746 -169.171224 39.038994 -174.706019
Spine 29.197897 -2.934169 -5.933873
Head 9.921084 -8.928148 16.388120
LeftShoulder 4.699849 -20.074708 3.437480
LeftArm 19.489618 59.216574 -70.721061
LeftForeArm -7.217968 0.000000 23.820588
LeftHand -0.246835 -0.000000 -4.642160
LeftHandThumb1 -26.253704 0.000000 33.147579
RightShoulder -4.733002 -6.380317 11.953552
RightArm 17.177346 1.701464 69.541866
RightForeArm -21.479851 -0.000000 22.826210
RightHand 0.160069 -0.000000 5.703134
RightHandThumb1 -24.326973 -0.000000 -32.862282
LeftUpLeg -12.883032 21.896521 1.395158
LeftLeg 6.061467 -0.000000 -0.000000
LeftFoot -15.892214 21.439256 -12.646181
LeftToeBase 24.500825 -0.000000 -0.000000
RightUpLeg -19.947885 -15.355253 -7.901390
RightLeg 9.164614 -0.000000 -0.000000
RightFoot 0.151247 -26.688032 13.497267
RightToeBase 8.298815 -0.000000 -0.000000
1604
root 19.517170 36.099964 -24.918169 -169.774268 38.108914 -174.711266
Spine 28.822501 -3.197270 -5.484149
Head 10.326201 -8.671679 15.878398
LeftShoulder 4.564375 -20.051774 3.331728
LeftArm 19.527212 60.195934 -70.645053
LeftForeArm -6.733241 -0.000000 24.772928
LeftHand -0.361605 -0.000000 -5.048829
LeftHandThumb1 -26.253704 0.000000 33.147579
RightShoulder -4.553072 -6.626136 12.056918
RightArm 17.927752 -1.423129 68.327096
RightForeArm -21.445768 -0.000000 23.991386
RightHand -0.216927 -0.000000 5.201413
RightHandThumb1 -24.326973 -0.000000 -32.862282
LeftUpLeg -12.411063 21.442941 1.506377
LeftLeg 6.036270 -0.000000 -0.000000
LeftFoot -15.798193 21.188398 -12.628764
LeftToeBase 24.512740 -0.000000 -0.000000
RightUpLeg -18.773495 -15.079067 -8.225489
RightLeg 9.027639 -0.000000 -0.000000
RightFoot -1.212231 -26.960759 13.761418
RightToeBase 8.351564 -0.000000 -0.000000
1605
root 19.472566 36.117876 -24.984104 -170.533446 37.270695 -174.605236
Spine 28.724243 -3.326658 -5.000468
Head 10.666070 -8.397019 15.437969
LeftShoulder 4.519513 -20.123676 3.207094
LeftArm 19.266421 60.846146 -70.901104
LeftForeArm -6.052413 -0.000000 25.587339
LeftHand -0.392862 -0.000000 -5.591145
LeftHandThumb1 -26.253704 0.000000 33.147579
RightShoulder -4.339348 -6.799451 12.104217
RightArm 18.791145 -3.651781 67.471225
RightForeArm -22.451234 -0.000000 24.988408
RightHand -0.323888 -0.000000 5.442879
RightHandThumb1 -24.326973 -0.000000 -32.862282
LeftUpLeg -11.562019 21.084364 1.814120
LeftLeg 5.861354 -0.000000 -0.000000
LeftFoot -15.669277 20.911695 -12.596383
LeftToeBase 24.476330 -0.000000 -0.000000
RightUpLeg -17.309806 -14.644212 -8.482790
RightLeg 8.759141 -0.000000 -0.000000
RightFoot -2.430774 -27.130902 13.906401
RightToeBase 8.643631 -0.000000 -0.000000
1606
root 19.461367 36.138149 -25.072829 -171.491702 36.293034 -174.384726
Spine 28.872158 -3.544992 -4.431721
Head 11.085970 -8.212103 15.032981
LeftShoulder 4.527374 -20.011648 2.989116
LeftArm 19.426371 61.543643 -70.658515
LeftForeArm -5.631150 -0.000000 26.422492
LeftHand -0.417050 -0.000000 -5.900115
LeftHandThumb1 -26.253704 0.000000 33.147579
RightShoulder -4.174009 -7.022868 12.220716
RightArm 19.821395 -6.143839 66.286954
RightForeArm -23.128336 0.000000 25.871907
RightHand -0.481304 0.000000 4.705267
RightHandThumb1 -24.326973 -0.000000 -32.862282
LeftUpLeg -10.324230 20.554903 2.379371
LeftLeg 5.580669 -0.000000 -0.000000
LeftFoot -15.580141 20.655934 -12.469120
LeftToeBase 24.690797 -0.000000 -0.000000
RightUpLeg -15.395297 -14.258965 -8.648141
RightLeg 8.300599 -0.000000 -0.000000
RightFoot -3.612418 -27.248495 14.560232
RightToeBase 8.345665 -0.000000 -0.000000
